<svg xmlns="http://www.w3.org/2000/svg">
  <path fill="#003" d="M0 1.94v26.08h81.67V41l13.8-12.98H100V1.94H0z"/>
  <g fill="#fff">
    <path d="M5.7 17.68c-1 .11-1.99.28-2.97.47.2 1.62.4 3.24.63 4.85 1.93.55 4 .6 6 .45 2.15-.17 4.43-.95 5.57-2.73 1.11-1.74 1.22-4.21-.3-5.78-1.25-1.28-3.08-1.81-4.8-2.36-.8-.3-1.9-.64-2.02-1.58-.2-.94.38-1.97 1.4-2.24.82-.24 1.87-.24 2.52.35.27.83.46 1.68.7 2.52.96-.1 1.92-.2 2.88-.34-.11-1.58-.23-3.16-.4-4.74-1.59-.53-3.33-.54-5-.45-2.15.15-4.47.86-5.7 2.6-1.39 1.75-1.36 4.44.38 5.98 1.25 1.18 2.93 1.84 4.6 2.38.78.31 1.82.66 1.94 1.57.18.85-.24 1.82-1.17 2.12a3.92 3.92 0 0 1-3.3-.25c-.3-.4-.34-.91-.51-1.36l-.45-1.46z"/>
    <path d="M20.77 23.49c2.08 0 4.18-.25 6.13-.94-.14-.7-.11-1.65-.42-2.17-1.06.23-2.15.41-3.24.35-.87-.12-1.18-.98-1.06-1.69 0-1.6-.02-3.2.03-4.8l4.24.02c.08-.82.1-1.64.11-2.45l-4.35.02c.02-1.24.07-2.5.06-3.73-.62.05-1.24.33-1.85.5-.83.25-1.65.54-2.45.89-.13.77 0 1.65-.32 2.35-.6.14-1.55-.05-1.92.29.06.63-.31 1.7.08 2.07h1.82c0 2.28-.07 4.56-.05 6.84.06 1.04 1 1.8 1.94 2.23.4.15.82.23 1.25.22z"/>
    <path d="M26.41 18.14c.01 1.53.56 3.17 1.96 4.1 1.82 1.27 4.27 1.49 6.46 1.09 1.26-.22 2.5-.55 3.68-1.04-.13-.73-.3-1.44-.54-2.14-1.5.42-3.07.8-4.65.67a2.3 2.3 0 0 1-2.16-2.06c-.06-.49.92-.1 1.3-.23 1.61-.01 3.23.02 4.83-.08.59-.32 1.09-.8 1.45-1.33.18-.46.02-.98-.03-1.46-.27-1.52-1.15-3.09-2.76-3.72-1.7-.69-3.7-.52-5.4.1a6.4 6.4 0 0 0-4.14 6.1zM33 13.68c.8-.03 1.32.68 1.45 1.34.12.52.41 1.59-.55 1.39-.92.02-1.84.04-2.77.04-.04-.94.18-2.02 1.07-2.59.24-.12.52-.19.8-.18zM42.57 8.58l-.03 12.33c-.2.18-.6.06-.9.12-.3.02-.7-.05-.57.36v1.84h7.6c-.1-.67.24-1.71-.11-2.17l-1.38-.07.03-4.2c.78-.2 1.7.06 2.03.79.92 1.9 1.71 3.85 2.8 5.68 1.87-.03 3.75-.01 5.62-.06-.1-.68.2-1.7-.14-2.18-.51-.1-1.08-.03-1.54-.27-.64-.75-.9-1.7-1.42-2.53-.57-1.02-1.11-2.2-2.3-2.73.35-.44 1.28-.58 1.71-1.07 1.76-1.28 2.44-3.83 1.15-5.6a5.68 5.68 0 0 0-4.08-2.34c-2.1-.37-4.25-.18-6.38-.21l-3.59.04c.12.69-.21 1.75.12 2.22l1.38.05zm4.7-.13c1.13-.3 2.43.14 3.03 1.1.91 1.35.95 3.45-.5 4.5-.71.5-1.8.67-2.6.48l.06-6.08z"/>
    <path d="M60.29 5.53c-1.3-.04-2.58.93-2.58 2.16-.03 1.4 1.52 2.57 2.99 2.25 1.23-.17 2.2-1.25 2.1-2.4-.02-1.07-1.04-1.97-2.19-2l-.32-.01zm-2.01 8.97v6.44c-.14.2-.52.08-.76.14l-.85.04c.04.68-.18 1.63.08 2.14 2.54-.03 5.09-.03 7.63-.03-.08-.67.17-1.65-.12-2.14l-1.43-.07c0-3.17.06-6.33.08-9.5-1.13.06-2.27.26-3.4.37-1 .12-1.99.24-2.98.31.05.71-.23 1.73.06 2.25l1.69.05z"/>
    <path d="M65.27 8v12.93c-.14.2-.54.08-.8.14l-.81.04c.07.68-.15 1.63.11 2.14 2.56-.03 5.13-.03 7.69-.03-.1-.67.17-1.66-.13-2.14l-1.48-.05.11-15.9c-.57-.23-1.49.12-2.18.11l-4.38.49c.06.68-.23 1.67.07 2.17l1.8.1z"/>
    <path d="M71.05 18.14c0 1.53.56 3.17 1.95 4.1 1.83 1.27 4.28 1.49 6.46 1.09 1.26-.22 2.51-.55 3.69-1.04-.13-.73-.31-1.44-.54-2.14-1.5.42-3.07.8-4.65.67a2.3 2.3 0 0 1-2.17-2.06c-.06-.49.92-.1 1.3-.23 1.62-.01 3.23.02 4.84-.08.58-.32 1.08-.8 1.45-1.33.17-.46.01-.98-.03-1.46-.28-1.52-1.16-3.09-2.77-3.72-1.7-.69-3.7-.52-5.39.1a6.4 6.4 0 0 0-4.14 6.1zm6.58-4.46c.81-.03 1.33.68 1.45 1.34.12.52.42 1.59-.54 1.39-.93.02-1.85.04-2.77.04-.05-.94.18-2.02 1.07-2.59.24-.12.52-.19.8-.18z"/>
    <path d="M97.1 13.92c-.05-.69.24-1.7-.07-2.19-1.83.04-3.66.03-5.49.03.07.7-.23 1.74.12 2.22.3.07.78-.08.93.18-.46 1.88-.88 3.77-1.56 5.6-.48-.19-.44-1.05-.73-1.49A82.67 82.67 0 0 1 88.83 14l1.3-.05c-.07-.69.23-1.76-.12-2.22h-7.23c.07.7-.26 1.76.09 2.25.36.06.78-.04 1.1.13 1.32 3.27 2.68 6.54 4.12 9.77-.64 1.44-1.99 2.5-3.3 3.42-.59.24-1.1.61-.42 1.1a6.1 6.1 0 0 0 2.99 1.56c1.11-.71 1.74-1.87 2.46-2.9C92.4 22.93 94.2 18.44 96.1 14l1.02-.08z"/>
  </g>
  <g fill="#fff">
    <path d="M82.98 9.72a.7.7 0 0 0-.52.22.64.64 0 0 0-.15.58c.04.18.17.32.32.41.2.11.45.1.65.02a.6.6 0 0 0 .34-.44.67.67 0 0 0-.15-.6.65.65 0 0 0-.49-.2zM83.83 9.45c0 .45.18.9.54 1.19.46.37 1.1.45 1.67.32.32-.06.64-.17.94-.33l-.15-.62c-.38.14-.8.28-1.22.16-.3-.1-.43-.44-.45-.73-.02-.36-.01-.76.22-1.05.18-.2.47-.16.7-.1.17.04.34.15.5.17.18-.17.27-.43.35-.67.07-.14.01-.25-.14-.27a2.57 2.57 0 0 0-1.71.08 1.98 1.98 0 0 0-1.25 1.85z"/>
    <path d="M88.57 11.02c.54 0 1.11-.18 1.48-.6.41-.44.58-1.08.46-1.67-.09-.52-.44-1-.94-1.19a2.33 2.33 0 0 0-1.8.06c-.63.3-1.03.97-1.03 1.66-.01.47.15.96.5 1.29.34.34.85.45 1.33.45zm.08-.61c-.25 0-.4-.24-.46-.46-.1-.38-.1-.78-.06-1.16.04-.26.1-.56.33-.71a.42.42 0 0 1 .6.22c.16.43.13.9.1 1.35-.01.25-.06.56-.3.7a.43.43 0 0 1-.2.06z"/>
    <path d="M90.92 8.3v1.92c-.05.08-.19.03-.27.05-.24-.05-.13.24-.15.38-.02.17-.04.35.17.29h1.8c-.03-.2.07-.53-.04-.67l-.28-.01.02-1.71c.22-.14.51-.31.77-.18.19.19.11.48.13.72v1.16c-.1.03-.21.02-.31.03v.66h1.81c-.03-.2.07-.53-.03-.67l-.27-.01.01-1.74c.23-.12.52-.27.76-.12.22.2.12.53.14.8 0 .35.02.7 0 1.05-.1.04-.2.02-.3.03.03.2-.06.53.04.66h1.88c-.02-.2.08-.53-.03-.67l-.36-.01c0-.61.04-1.22.01-1.83-.07-.54-.56-1.05-1.14-1-.41.04-.75.31-1.11.49-.16-.13-.3-.34-.5-.43-.37-.18-.79-.03-1.11.17-.16.04-.47.4-.45.05-.02-.15 0-.38-.22-.27-.48.07-.95.15-1.43.2.03.2-.07.52.03.64l.43.01z"/>
  </g>
</svg>
